<?xml version="1.0" encoding="UTF-8" standalone="no"?>
<svg
   xmlns:dc="http://purl.org/dc/elements/1.1/"
   xmlns:cc="http://creativecommons.org/ns#"
   xmlns:rdf="http://www.w3.org/1999/02/22-rdf-syntax-ns#"
   xmlns:svg="http://www.w3.org/2000/svg"
   xmlns="http://www.w3.org/2000/svg"
   xmlns:sodipodi="http://sodipodi.sourceforge.net/DTD/sodipodi-0.dtd"
   xmlns:inkscape="http://www.inkscape.org/namespaces/inkscape"
   version="1.1"
   id="Sound_x5F_waves"
   x="0px"
   y="0px"
   viewBox="0 0 64 64"
   xml:space="preserve"
   sodipodi:docname="shaper_wave_4.svg"
   width="64"
   height="64"
   inkscape:version="1.0.2-2 (e86c870879, 2021-01-15)"><metadata
   id="metadata27"><rdf:RDF><cc:Work
       rdf:about=""><dc:format>image/svg+xml</dc:format><dc:type
         rdf:resource="http://purl.org/dc/dcmitype/StillImage" /><dc:title></dc:title></cc:Work></rdf:RDF></metadata><defs
   id="defs25" /><sodipodi:namedview
   pagecolor="#bfbfbf"
   bordercolor="#666666"
   borderopacity="1"
   objecttolerance="10"
   gridtolerance="10"
   guidetolerance="10"
   inkscape:pageopacity="0"
   inkscape:pageshadow="2"
   inkscape:window-width="1920"
   inkscape:window-height="1017"
   id="namedview23"
   showgrid="false"
   showborder="true"
   inkscape:zoom="12.921875"
   inkscape:cx="32"
   inkscape:cy="32"
   inkscape:window-x="1912"
   inkscape:window-y="-8"
   inkscape:window-maximized="1"
   inkscape:current-layer="row1" />
<style
   type="text/css"
   id="style2">
	.st0{display:none;}
	.st1{display:inline;fill:#1E1A1B;}
	.st2{display:inline;fill:#232323;}
	.st3{display:none;fill:#232323;}
	.st4{fill:#232323;}
</style>
<g
   id="row3"
   class="st0">
	<path
   id="icon:5_2_"
   class="st1"
   d="m 128,62.7 v 2.6 h -6.2 c -7,19 -14.2,37.6 -28.1,37.6 -14,0 -21.1,-18.6 -28.1,-37.6 H 0 v -2.6 h 7.6 c 7,-19 14.2,-37.6 28.1,-37.6 h 0.7 c 14,0 21.1,18.6 28.1,37.6 z" />
	<polygon
   id="icon:4_2_"
   class="st1"
   points="123.9,67.5 123.9,73.1 119.4,73.1 119.4,67.5 114.8,67.5 114.8,75.9 110.2,75.9 110.2,67.5 59.9,67.5 59.9,71.7 55.4,71.7 55.4,67.5 50.8,67.5 50.8,74.5 46.2,74.5 46.2,67.5 41.6,67.5 41.6,91.3 37.1,91.3 37.1,67.5 32.5,67.5 32.5,82.9 27.9,82.9 27.9,67.5 0,67.5 0,64.7 3.6,64.7 3.6,59.1 8.1,59.1 8.1,64.7 12.7,64.7 12.7,56.3 17.3,56.3 17.3,64.7 21.8,64.7 21.8,53.5 26.4,53.5 26.4,64.7 63,64.7 63,59.1 67.6,59.1 67.6,64.7 72.1,64.7 72.1,56.3 76.7,56.3 76.7,64.7 81.3,64.7 81.3,53.5 85.8,53.5 85.8,64.7 90.4,64.7 90.4,43.7 95,43.7 95,64.7 99.6,64.7 99.6,36.7 104.1,36.7 104.1,64.7 128,64.7 128,67.5 " />
	<path
   id="icon:3_1_"
   class="st2"
   d="M 6.1,95.7 H 0 V 60.3 H 6.1 Z M 14.2,65.9 H 8.1 v 29.9 h 6.1 z m 8.1,-18.7 h -6.1 v 48.5 h 6.1 z m 8.2,-7.5 h -6.1 v 56 h 6.1 z m 8.1,-5.6 h -6.1 v 61.6 h 6.1 z m 8.1,9.4 h -6.1 v 52.2 h 6.1 z m 8.2,-9.4 h -6.1 v 61.6 h 6.1 z M 63,60.3 H 56.9 V 95.8 H 63 Z M 71.1,43.5 H 65 v 52.2 h 6.1 z m 8.1,-5.6 h -6.1 v 57.8 h 6.1 z m 8.2,-5.6 h -6.1 v 63.4 h 6.1 z m 8.1,3.7 h -6.1 v 59.7 h 6.1 z m 8.1,5.6 h -6.1 v 54.1 h 6.1 z m 8.1,-9.3 h -6.1 v 63.4 h 6.1 z m 8.2,0 h -6.1 v 63.4 h 6.1 z m 8.1,7.4 h -6.1 v 56 h 6.1 z" />
	<path
   id="icon:2_2_"
   class="st2"
   d="M 24.1,86.7 H 2 c -1.1,0 -2,-0.9 -2,-2 V 43.1 c 0,-1.1 0.9,-2 2,-2 H 24.1 Z M 74.4,8.7 28.2,41.2 v 45.6 l 46.2,32.6 z M 128,77.2 113.7,64 128,50.8 120.7,44.1 106.4,57.3 92.1,44.2 84.8,50.9 99.2,64 84.8,77.2 l 7.3,6.7 14.3,-13.2 14.3,13.2 z" />
	<path
   id="icon:1"
   class="st2"
   d="M 110.7,24.3 V 0 h -8 v 24.3 c -7.6,1.8 -13.3,8.5 -13.3,16.5 0,8 5.7,14.8 13.3,16.5 V 128 h 8 V 57.3 c 7.6,-1.8 13.3,-8.5 13.3,-16.5 0,-8 -5.7,-14.7 -13.3,-16.5 z m -4,25.6 c -5.1,0 -9.3,-4.1 -9.3,-9.1 0,-5 4.2,-9.1 9.3,-9.1 5.1,0 9.3,4.1 9.3,9.1 0,5 -4.2,9.1 -9.3,9.1 z M 68,47.8 V 0 h -8 v 47.8 c -7.6,1.8 -13.3,8.5 -13.3,16.5 0,8 5.7,14.8 13.3,16.5 V 128 h 8 V 80.8 C 75.6,79 81.3,72.3 81.3,64.3 81.3,56.3 75.6,49.6 68,47.8 Z m -4,25.7 c -5.1,0 -9.3,-4.1 -9.3,-9.1 0,-5 4.2,-9.1 9.3,-9.1 5.1,0 9.3,4.1 9.3,9.1 0,5 -4.2,9.1 -9.3,9.1 z M 25.3,73.9 V 0 h -8 V 73.9 C 9.7,75.7 4,82.4 4,90.4 c 0,8 5.7,14.8 13.3,16.5 V 128 h 8 V 106.9 C 32.9,105.1 38.6,98.4 38.6,90.4 38.7,82.4 33,75.7 25.3,73.9 Z m -4,25.7 c -5.1,0 -9.3,-4.1 -9.3,-9.1 0,-5 4.2,-9.1 9.3,-9.1 5.1,0 9.3,4.1 9.3,9.1 0.1,5 -4.1,9.1 -9.3,9.1 z" />
</g>
<g
   id="row2"
   class="st0">
	<path
   id="icon:5_1_"
   class="st1"
   d="m 121.3,61.6 c -0.1,-6.2 -0.7,-11 -1.5,-11 -0.8,0 -1.4,4.3 -1.5,10.1 -0.2,-0.2 -0.5,-0.3 -0.8,-0.3 -0.4,0 -0.8,0.3 -1.1,0.7 -0.1,-7.7 -0.6,-13.7 -1.3,-13.7 -0.7,0 -1.2,5.7 -1.3,13.2 -0.3,-0.9 -0.9,-1.6 -1.5,-1.6 -0.7,0 -1.3,0.7 -1.6,1.8 -0.2,-1.1 -0.7,-1.8 -1.2,-1.8 -0.5,0 -1,0.7 -1.2,1.8 -0.2,-1.3 -0.8,-2.2 -1.4,-2.2 -0.5,0 -1,0.7 -1.3,1.7 -0.1,-16.8 -0.6,-29.9 -1.2,-29.9 -0.6,0 -1.2,13.8 -1.2,31.3 v 0 c -0.1,-1.8 -0.6,-3 -1.2,-3 -0.2,0 -0.4,0.2 -0.6,0.6 -0.2,-5 -0.8,-8.6 -1.5,-8.6 -0.8,0 -1.4,4.3 -1.5,10.1 -0.2,-0.2 -0.5,-0.3 -0.8,-0.3 -0.4,0 -0.8,0.3 -1.1,0.7 -0.1,-7.7 -0.6,-13.7 -1.3,-13.7 -0.7,0 -1.2,5.7 -1.3,13.2 -0.3,-0.9 -0.9,-1.6 -1.5,-1.6 -0.7,0 -1.3,0.7 -1.6,1.8 -0.2,-1.1 -0.7,-1.8 -1.2,-1.8 -0.5,0 -1,0.7 -1.2,1.8 -0.2,-1.3 -0.8,-2.3 -1.4,-2.3 -0.5,0 -1,0.7 -1.3,1.7 -0.1,-16.8 -0.6,-29.9 -1.2,-29.9 -0.6,0 -1.2,13.8 -1.2,31.3 v 0 c -0.1,-1.8 -0.6,-3 -1.2,-3 -0.5,0 -0.9,1 -1.1,2.4 -0.1,-5.9 -1,-10.4 -2.1,-10.4 -1,0 -1.9,4.3 -2.1,10.1 -0.3,-0.2 -0.7,-0.3 -1,-0.3 -0.6,0 -1.1,0.3 -1.5,0.7 -0.1,-7.7 -0.9,-13.7 -1.8,-13.7 -0.9,0 -1.7,5.7 -1.8,13.2 -0.4,-1 -1.2,-1.6 -2.1,-1.6 -0.9,0 -1.7,0.7 -2.1,1.8 -0.3,-1 -0.9,-1.7 -1.7,-1.7 -0.7,0 -1.3,0.7 -1.7,1.8 -0.3,-1.3 -1,-2.2 -1.9,-2.2 -0.7,0 -1.3,0.7 -1.7,1.7 -0.1,-16.8 -0.8,-29.9 -1.6,-29.9 -0.9,0 -1.6,13.8 -1.6,31.3 h -0.1 c -0.2,-1.8 -0.8,-3 -1.6,-3 -0.4,0 -0.7,0.4 -1,0.9 -0.1,-5.2 -0.6,-9 -1.2,-9 -0.6,0 -1.1,4.3 -1.2,10.1 -0.2,-0.2 -0.4,-0.3 -0.6,-0.3 -0.3,0 -0.7,0.3 -0.9,0.7 0,-7.7 -0.5,-13.8 -1,-13.8 -0.5,0 -1,5.7 -1,13.2 -0.3,-1 -0.7,-1.6 -1.2,-1.6 -0.5,0 -1,0.7 -1.3,1.8 -0.2,-1 -0.5,-1.8 -0.9,-1.8 -0.4,0 -0.8,0.7 -1,1.8 -0.2,-1.3 -0.6,-2.2 -1.1,-2.2 -0.4,0 -0.8,0.7 -1,1.7 0,-16.8 -0.4,-29.9 -0.9,-29.9 -0.5,0 -0.9,13.8 -0.9,31.3 v 0 c -0.1,-1.8 -0.5,-3 -0.9,-3 -0.4,0 -0.8,1.3 -0.9,3 H 36 c -0.1,-2.2 -0.4,-3.9 -0.9,-3.9 -0.5,0 -0.8,1.7 -0.9,3.9 h -0.1 c -0.1,-1.5 -0.5,-2.6 -0.9,-2.6 -0.1,0 -0.2,0.1 -0.3,0.3 -0.1,-5.6 -0.4,-9.6 -0.8,-9.6 -0.4,0 -0.8,5.2 -0.8,12 H 31 c -0.1,-1.8 -0.3,-3 -0.6,-3 -0.3,0 -0.5,1.3 -0.6,3 h -1.2 c -0.1,-0.3 -0.2,-0.4 -0.4,-0.4 -0.1,0 -0.3,0.2 -0.4,0.4 h -1.6 c 0,-6.3 -0.4,-11.2 -0.8,-11.2 -0.4,0 -0.8,4.9 -0.8,11.2 h -0.7 c -0.1,-1.1 -0.3,-2 -0.5,-2 -0.2,0 -0.4,0.8 -0.5,2 h -0.1 c -0.1,-0.7 -0.3,-1.2 -0.6,-1.2 -0.2,0 -0.5,0.5 -0.6,1.2 h -0.5 c -0.1,-1.2 -0.5,-2.1 -0.9,-2.1 -0.4,0 -0.8,0.9 -0.9,2.1 v 0 c 0,-5.6 -0.4,-10 -0.9,-10 -0.5,0 -0.9,3.9 -0.9,9.1 -0.5,0 -0.9,0.4 -1.2,0.9 h -0.4 c -0.2,-1.5 -0.7,-2.5 -1.4,-2.5 -0.7,0 -1.2,1.1 -1.4,2.5 h -0.2 c -0.2,-0.9 -0.7,-1.4 -1.3,-1.4 -0.6,0 -1,0.6 -1.3,1.4 H 7.9 C 7.6,61.2 7.2,60.8 6.6,60.8 6.4,60.8 6.2,60.8 6.1,60.9 5.9,60.6 5.6,60.4 5.3,60.4 4.8,60.4 4.4,61 4.2,61.9 H 0 V 64 h 4.2 c 0.2,0.9 0.6,1.5 1.1,1.5 0.3,0 0.5,-0.1 0.7,-0.4 0.2,0.1 0.4,0.2 0.6,0.2 0.6,0 1.1,-0.5 1.4,-1.3 h 2.6 c 0.3,0.6 0.7,1 1.1,1 0.4,0 0.8,-0.4 1.1,-1 h 0.4 c 0.2,1.3 0.7,2.2 1.3,2.2 0.6,0 1.1,-0.9 1.3,-2.2 h 0.4 c 0.3,0.5 0.7,0.9 1.2,0.9 0.1,4.9 0.5,8.6 0.9,8.6 0.5,0 0.9,-4.2 0.9,-9.5 h 0.2 c 0.2,0.7 0.5,1.2 0.8,1.2 0.3,0 0.6,-0.5 0.8,-1.2 h 0.7 c 0.1,0.4 0.3,0.7 0.5,0.7 0.2,0 0.3,-0.3 0.5,-0.7 H 23 c 0.1,0.7 0.3,1.2 0.4,1.2 0.1,0 0.3,-0.5 0.4,-1.2 h 0.7 c 0,6.4 0.4,11.4 0.8,11.4 0.4,0 0.8,-5 0.8,-11.4 h 1.4 c 0.1,0.7 0.3,1.2 0.6,1.2 0.3,0 0.5,-0.5 0.6,-1.2 h 1 c 0.1,1.6 0.3,2.8 0.6,2.8 0.3,0 0.5,-1.2 0.6,-2.8 h 0.4 c 0,6.7 0.4,12 0.8,12 0.4,0 0.7,-4.2 0.8,-10 0.1,0.2 0.2,0.3 0.3,0.3 0.4,0 0.7,-1 0.9,-2.3 h 0.1 c 0.1,2 0.4,3.5 0.8,3.5 0.4,0 0.7,-1.5 0.8,-3.5 h 1.7 c 0.1,1.6 0.5,2.8 0.9,2.8 0.4,0 0.8,-1.2 0.9,-2.8 h 0.1 c 0,18.6 0.4,33.7 0.9,33.7 0.5,0 0.9,-14.8 0.9,-33.1 0.2,1 0.6,1.7 1,1.7 0.5,0 0.9,-0.9 1.1,-2.3 0,0 0,0 0,-0.1 v 0 0.1 c 0.2,1.1 0.5,1.8 0.9,1.8 0.4,0 0.8,-0.7 1,-1.8 0,0 0,0 0,0 v 0 c 0,0 0,0 0,0 0.2,1.1 0.7,1.8 1.2,1.8 0.5,0 0.9,-0.6 1.2,-1.6 0,-0.1 0,-0.1 0,-0.2 v 0 c 0,0.1 0,0.1 0,0.2 0.1,7.7 0.5,13.6 1,13.6 0.5,0 1,-6.1 1,-13.9 0,-0.1 0,-0.1 0,-0.2 0,0.1 0.1,0.1 0.1,0.2 0.2,0.4 0.5,0.6 0.8,0.6 0.2,0 0.4,-0.1 0.6,-0.3 0.1,6 0.6,10.6 1.2,10.6 0.6,0 1,-3.8 1.2,-9 0.3,0.6 0.6,0.9 1,0.9 0.7,0 1.3,-1.2 1.5,-2.8 h 0.1 c 0,18.6 0.7,33.7 1.6,33.7 0.9,0 1.6,-14.7 1.6,-33.1 0.4,1 1,1.7 1.7,1.7 0.8,0 1.5,-0.9 1.9,-2.3 0,0 0,0 0,-0.1 v 0 c 0,0 0,0 0,0.1 0.3,1.1 0.9,1.8 1.7,1.8 0.7,0 1.3,-0.7 1.7,-1.8 0,0 0,0 0,0 v 0 c 0,0 0,0 0,0 0.4,1 1.2,1.8 2.1,1.8 0.9,0 1.6,-0.6 2.1,-1.6 0.1,7.7 0.9,13.6 1.8,13.6 0.9,0 1.7,-6.1 1.8,-13.9 h 0.1 c 0.4,0.4 0.8,0.6 1.3,0.6 0.4,0 0.7,-0.1 1,-0.3 0.1,6 1,10.6 2.1,10.6 1.1,0 1.9,-4.5 2.1,-10.4 0.2,1.4 0.6,2.4 1.1,2.4 0.5,0 1,-1.2 1.1,-2.8 H 83 c 0,18.6 0.5,33.7 1.2,33.7 0.7,0 1.2,-14.7 1.2,-33 0.3,1 0.7,1.7 1.2,1.7 0.6,0 1.1,-1 1.4,-2.3 0,0 0,0 0,0 v 0 0 c 0.2,1.1 0.7,1.8 1.2,1.8 0.5,0 1,-0.7 1.2,-1.8 0,0 0,0 0,0 v 0 c 0,0 0,0 0,0 0.3,1.1 0.9,1.8 1.6,1.8 0.7,0 1.2,-0.6 1.5,-1.6 0,-0.1 0,-0.1 0,-0.2 h 0.1 c 0,0.1 0,0.1 -0.1,0.2 0.1,7.7 0.6,13.6 1.3,13.6 0.7,0 1.3,-6.1 1.3,-13.9 0,0 0,-0.1 0,-0.1 0,0 0.1,0.1 0.1,0.1 0.3,0.4 0.6,0.6 1,0.6 0.3,0 0.5,-0.1 0.8,-0.3 0.1,6 0.7,10.6 1.5,10.6 0.7,0 1.3,-3.6 1.5,-8.6 0.2,0.4 0.4,0.6 0.6,0.6 0.5,0 1,-1.2 1.1,-2.8 h 5.1 c 0,0 0,0 0,0.1 0.3,1.1 0.7,1.8 1.2,1.8 0.5,0 1,-0.7 1.2,-1.8 v 0 0 c 0,0 0,0 0,0 0.3,1.1 0.9,1.8 1.6,1.8 0.7,0 1.2,-0.6 1.5,-1.6 0,-0.1 0,-0.1 0,-0.2 h 0.1 c 0,0.1 0,0.1 -0.1,0.2 0.1,7.7 0.6,13.6 1.3,13.6 0.7,0 1.3,-6.1 1.3,-13.9 0,0 0,-0.1 0,-0.1 0,0 0.1,0.1 0.1,0.1 0.3,0.4 0.6,0.6 1,0.6 0.3,0 0.5,-0.1 0.8,-0.3 V 64 h 0.2 c -0.1,0.1 -0.1,0.2 -0.2,0.3 0.1,6 0.7,10.6 1.5,10.6 0.8,0 1.5,-4.8 1.5,-10.8 h 6.7 v -2.4 h -6.2 z m -4.9,0 h -0.3 c 0.1,-0.2 0.1,-0.4 0.3,-0.6 0,0.2 0,0.4 0,0.6 z" />
	<polygon
   id="icon:4_1_"
   class="st2"
   points="125.9,66 125.9,67.2 124,67.2 124,68.5 122.3,68.5 122.3,69.5 120.7,69.5 120.7,70.4 119.1,70.4 119.1,69.5 117.5,69.5 117.5,74.4 115.6,74.4 115.6,72.9 113.9,72.9 113.9,75.5 110.7,75.5 110.7,81.9 107.8,81.9 107.8,75.8 100.1,75.8 100.1,74.1 98.9,74.1 98.9,70.9 97.9,70.9 97.9,78.8 96.3,78.8 96.3,74.4 94.7,74.4 94.7,70.9 93.5,70.9 93.5,72.9 90.3,72.9 90.3,70.9 88.9,70.9 88.9,69.3 88.2,69.3 88.2,79.1 86.6,79.1 86.6,78.5 84.9,78.5 84.9,74.4 83.7,74.4 83.7,77.1 82.1,77.1 82.1,69.5 77.8,69.5 77.8,73.6 76.1,73.6 76.1,69.3 75,69.3 75,64.7 47.4,64.7 47.4,69.5 45.7,69.5 45.7,70.4 44.1,70.4 44.1,69.5 42.5,69.5 42.5,74.4 40.6,74.4 40.6,72.9 39,72.9 39,75.5 35.8,75.5 35.8,81.9 32.9,81.9 32.9,75.8 25.1,75.8 25.1,74.1 23.9,74.1 23.9,70.9 23,70.9 23,78.8 21.3,78.8 21.3,74.4 19.8,74.4 19.8,70.9 18.5,70.9 18.5,72.9 15.3,72.9 15.3,70.9 13.9,70.9 13.9,69.3 13.2,69.3 13.2,79.1 11.6,79.1 11.6,78.5 10,78.5 10,74.4 8.8,74.4 8.8,77.1 7.1,77.1 7.1,69.5 2.8,69.5 2.8,73.6 1.2,73.6 1.2,69.3 0,69.3 0,57.2 1.2,57.2 1.2,52.8 2.8,52.8 2.8,57.4 7.1,57.4 7.1,51.2 8.8,51.2 8.8,53.8 10,53.8 10,49.6 11.6,49.6 11.6,48.2 13.2,48.2 13.2,57.4 13.9,57.4 13.9,55.3 15.3,55.3 15.3,52.4 18.5,52.4 18.5,55.3 19.8,55.3 19.8,52.4 21.3,52.4 21.3,49.1 23,49.1 23,56.6 23.9,56.6 23.9,53.8 25.1,53.8 25.1,49.1 26.8,49.1 26.8,51.2 32.9,51.2 32.9,46.1 35.8,46.1 35.8,52.8 39,52.8 39,54.3 40.6,54.3 40.6,52.1 42.5,52.1 42.5,56.9 44.1,56.9 44.1,55 45.7,55 45.7,56.3 47.4,56.3 47.4,61.8 75,61.8 75,57.2 76.1,57.2 76.1,52.8 77.8,52.8 77.8,57.4 82.1,57.4 82.1,51.2 83.7,51.2 83.7,53.8 84.9,53.8 84.9,49.6 86.6,49.6 86.6,48.2 88.2,48.2 88.2,57.4 88.9,57.4 88.9,55.3 90.3,55.3 90.3,52.4 93.5,52.4 93.5,55.3 94.7,55.3 94.7,52.4 96.3,52.4 96.3,49.1 97.9,49.1 97.9,56.6 98.9,56.6 98.9,53.8 100.1,53.8 100.1,49.1 101.7,49.1 101.7,51.2 107.8,51.2 107.8,46.1 110.7,46.1 110.7,52.8 113.9,52.8 113.9,54.3 115.6,54.3 115.6,52.1 117.5,52.1 117.5,56.9 119.1,56.9 119.1,55 120.7,55 120.7,56.3 122.3,56.3 122.3,57.9 124,57.9 124,59.1 125.9,59.1 125.9,60.4 128,60.4 128,66 " />
	<path
   id="icon:3_2_"
   class="st2"
   d="M 19.5,82.4 H 2 c -1.1,0 -2,-0.9 -2,-2 v -33 c 0,-1.1 0.9,-2 2,-2 H 19.5 Z M 60.3,19.2 22.9,45.5 v 36.9 l 37.4,26.4 z m 9.2,41.1 c 3.4,3.1 3.4,8.2 0,11.3 l 5.3,4.8 c 6.3,-5.8 6.3,-15.2 0,-21 z M 87.1,44.1 c 13.1,12 13.1,31.6 0,43.6 l 5.3,4.8 c 16,-14.7 16,-38.6 0,-53.3 z m 16.7,-15.3 c 22.3,20.5 22.3,53.8 0,74.3 l 5.3,4.8 c 25.2,-23.2 25.2,-60.8 0,-84 z" />
	<path
   id="icon:2"
   class="st2"
   d="M 26.9,104.2 H 0 V 98 H 26.9 Z M 60.6,98 H 33.7 v 6.2 h 26.9 z m 33.7,0 H 67.4 v 6.2 h 26.9 z m 33.7,0 h -26.9 v 6.2 H 128 Z M 26.9,96 H 0 V 89.8 H 26.9 Z M 60.6,89.8 H 33.7 V 96 h 26.9 z m 33.7,0 H 67.4 V 96 h 26.9 z m 33.7,0 H 101.1 V 96 H 128 Z M 26.9,87.7 H 0 V 81.5 H 26.9 Z M 60.6,81.5 H 33.7 v 6.2 h 26.9 z m 33.7,0 H 67.4 v 6.2 h 26.9 z m 33.7,0 h -26.9 v 6.2 H 128 Z M 26.9,79.5 H 0 V 73.3 H 26.9 Z M 60.6,73.3 H 33.7 v 6.2 h 26.9 z m 67.4,0 h -26.9 v 6.2 H 128 Z M 26.9,71.2 H 0 V 65 H 26.9 Z M 128,65 h -26.9 v 6.2 H 128 Z M 26.9,63 H 0 v -6.2 h 26.9 z m 33.7,2 H 33.7 v 6.2 H 60.6 Z M 128,56.8 H 101.1 V 63 H 128 Z M 26.9,46.5 H 0 V 40.3 H 26.9 Z M 60.6,56.8 H 33.7 V 63 H 60.6 Z M 94.3,73.3 H 67.4 v 6.2 h 26.9 z m 33.7,-33 h -26.9 v 6.2 H 128 Z M 26.9,30 H 0 V 23.8 H 26.9 Z M 60.6,40.3 H 33.7 v 6.2 H 60.6 Z M 94.3,56.8 H 67.4 V 63 H 94.3 Z M 128,23.8 H 101.1 V 30 H 128 Z" />
	<path
   id="icon:1_1_"
   class="st2"
   d="M 8.8,78.2 H 0 V 49.8 H 8.8 Z M 22.1,42.7 h -8.8 v 42.6 h 8.8 z m 13.2,-7.1 h -8.8 v 56.7 h 8.8 z m 13.3,-8.1 h -8.8 v 73 h 8.8 z M 61.8,39.3 H 53 v 49.5 h 8.8 z M 75,47 H 66.2 V 81 H 75 Z m 44.2,53.5 h 8.8 v -73 h -8.8 z M 105.9,39.3 h 8.8 v 49.5 h -8.8 z M 92.7,47 h 8.8 v 34 h -8.8 z m -4.4,8 h -8.8 v 18 h 8.8 z" />
</g>
<g
   id="row1">
	<path
   id="icon:5"
   class="st3"
   d="m 78.1,100.3 c -0.1,0 -0.1,0 -0.2,0 -2,-0.1 -3.6,-1.4 -3.9,-3.2 L 63.5,38.6 52.2,96 c -0.4,1.9 -2.1,3.2 -4.1,3.2 v 0 C 46,99.2 44.3,97.9 44,96 l -7.7,-39.3 -5.1,22 H 0 v -5 h 26.7 l 5.6,-24 c 0.4,-1.8 2.1,-3 4.1,-3 0,0 0,0 0.1,0 2,0 3.7,1.3 4.1,3.2 l 7.6,38.7 11.3,-57.7 c 0.4,-1.9 2.1,-3.2 4.1,-3.2 0,0 0,0 0,0 2.1,0 3.8,1.3 4.1,3.2 l 10.7,59.9 8.9,-30.6 c 0.5,-1.7 2.2,-2.9 4.1,-2.9 1.9,0 3.6,1.3 4,3 l 6.9,28.5 5.7,-13.2 h 20 v 5 h -16.2 l -5.9,13.7 c -0.7,1.6 -2.4,2.6 -4.2,2.4 -1.8,-0.1 -3.4,-1.3 -3.8,-3 L 91.2,66.1 82.1,97.4 c -0.5,1.7 -2.1,2.9 -4,2.9 z" />
	<path
   id="icon:4"
   class="st3"
   d="M 24.7,42.6 H 0 V 31.9 h 24.7 z m 0,2.7 H 0 V 56 h 24.7 z m 0,13.4 H 0 v 10.7 h 24.7 z m 0,13.3 H 0 v 10.7 h 24.7 z m 0,13.4 H 0 V 96.1 H 24.7 Z M 94.5,45.3 H 69.8 V 56 h 24.7 z m 0,13.4 H 69.8 v 10.7 h 24.7 z m 0,13.3 H 69.8 v 10.7 h 24.7 z m 0,13.4 H 69.8 V 96.1 H 94.5 Z M 128,72 H 103.3 V 82.7 H 128 Z m 0,13.4 H 103.3 V 96.1 H 128 Z M 59.6,58.7 H 34.9 v 10.7 h 24.7 z m 0,13.3 H 34.9 v 10.7 h 24.7 z m 0,13.4 H 34.9 v 10.7 h 24.7 z" />
	<path
   id="icon:3"
   class="st3"
   d="M 18.9,108.1 H 0 V 77.7 H 18.9 Z M 128,19.9 h -18.9 v 88.3 H 128 Z M 100.7,39.1 H 81.8 v 69 h 18.9 z M 73.4,77.7 H 54.6 v 30.5 H 73.5 V 77.7 Z M 46.2,58.4 H 27.3 v 49.8 h 18.9 z" />
	<path
   id="icon:2_1_"
   class="st4"
   d="m 55.4,32.30375 c -0.63,-4.59 -1.755,-13.0275 -2.88,-13.8375 -1.125,0.8775 -2.25,9.315 -2.88,13.8375 -1.26,9.315 -2.25,16.74 -5.355,16.74 -3.105,0 -4.095,-7.3575 -5.355,-16.74 -0.63,-4.59 -1.755,-13.0275 -2.88,-13.8375 -1.125,0.8775 -2.25,9.315 -2.88,13.8375 -1.26,9.315 -2.25,16.74 -5.355,16.74 -3.105,0 -4.095,-7.3575 -5.355,-16.74 -0.63,-4.59 -1.755,-13.0275 -2.88,-13.8375 -1.125,0.8775 -2.25,9.315 -2.88,13.8375 -1.26,9.315 -2.25,16.74 -5.355,16.74 -3.105,0 -4.095,-7.3575 -5.355,-16.74 0.2623148,-1.401532 1.9241143,-1.679301 2.565,-0.6075 0.63,4.59 1.755,13.0275 2.88,13.8375 1.125,-0.8775 2.25,-9.315 2.88,-13.8375 1.26,-9.315 2.25,-16.74 5.355,-16.74 3.105,0 4.095,7.3575 5.355,16.74 0.63,4.59 1.755,13.0275 2.88,13.8375 1.125,-0.8775 2.25,-9.315 2.88,-13.8375 1.26,-9.315 2.25,-16.74 5.355,-16.74 3.105,0 4.095,7.3575 5.355,16.74 0.63,4.59 1.755,13.0275 2.88,13.8375 1.125,-0.8775 2.25,-9.315 2.88,-13.8375 1.26,-9.315 2.25,-16.74 5.355,-16.74 3.105,0 4.095,7.3575 5.355,16.74 -0.316075,1.70136 -1.999268,1.778966 -2.565,0.6075 z"
   style="fill:#ffffff;fill-opacity:1;stroke-width:0.551135"
   sodipodi:nodetypes="cccscccscccsccccscccscccscc" />
	<path
   id="icon:1_2_"
   class="st3"
   d="M 50.3,90.3 H 24.5 c -1.1,0 -2,-0.9 -2,-2 V 39.5 c 0,-1.1 0.9,-2 2,-2 H 50.3 Z M 105.5,0 55.1,37.6 v 52.7 l 50.4,37.6 z" />
</g>
</svg>
